<svg xmlns="http://www.w3.org/2000/svg" display="none">
<symbol id="paw" viewBox="0 0 551.062 551.062">
<g>
<path d="M465.19,453.459c14.749,67.688-58.752,82.375-91.127,73.562s-98.41-10.281-98.41-10.281s-66.218,1.469-98.593,10.281
		c-32.375,8.874-105.937-5.875-91.249-73.562s79.438-64.75,97.186-155.999c17.687-91.249,92.718-85.374,92.718-85.374
		s74.847-5.875,92.535,85.374C385.875,388.709,450.502,385.771,465.19,453.459z M343.586,206.15
		c39.841,11.505,83.844-19.951,98.349-70.258c14.504-50.245-5.998-100.307-45.839-111.812
		c-39.842-11.506-83.844,19.951-98.349,70.258C283.243,144.583,303.745,194.645,343.586,206.15z M508.703,187.852
		c-38.372-15.668-85.496,10.894-105.264,59.363c-19.768,48.471-4.712,100.43,33.66,116.035
		c38.372,15.606,85.496-10.894,105.264-59.364C562.131,255.416,547.076,203.519,508.703,187.852z M207.416,206.15
		c39.841-11.506,60.343-61.567,45.839-111.812s-58.568-81.702-98.349-70.196c-39.78,11.505-60.343,61.566-45.839,111.812
		C123.572,186.199,167.575,217.655,207.416,206.15z M113.963,363.25c38.373-15.667,53.428-67.626,33.66-116.035
		s-66.892-75.031-105.264-59.363C3.987,203.519-11.068,255.478,8.7,303.886C28.467,352.356,75.591,378.917,113.963,363.25z"/>
</g>
</symbol>
<symbol id="github" viewBox="0 0 24 24" >
<g>
<path d="m12 .5c-6.63 0-12 5.28-12 11.792 0 5.211 3.438 9.63 8.205 11.188.6.111.82-.254.82-.567 0-.28-.01-1.022-.015-2.005-3.338.711-4.042-1.582-4.042-1.582-.546-1.361-1.335-1.725-1.335-1.725-1.087-.731.084-.716.084-.716 1.205.082 1.838 1.215 1.838 1.215 1.07 1.803 2.809 1.282 3.495.981.108-.763.417-1.282.76-1.577-2.665-.295-5.466-1.309-5.466-5.827 0-1.287.465-2.339 1.235-3.164-.135-.298-.54-1.497.105-3.121 0 0 1.005-.316 3.3 1.209.96-.262 1.98-.392 3-.398 1.02.006 2.04.136 3 .398 2.28-1.525 3.285-1.209 3.285-1.209.645 1.624.24 2.823.12 3.121.765.825 1.23 1.877 1.23 3.164 0 4.53-2.805 5.527-5.475 5.817.42.354.81 1.077.81 2.182 0 1.578-.015 2.846-.015 3.229 0 .309.21.678.825.56 4.801-1.548 8.236-5.97 8.236-11.173 0-6.512-5.373-11.792-12-11.792z"/>
</g>
</symbol>
<symbol id="play" viewBox="0 0 48 48" >
<g>
<path d="M9.3,47.4a2.5,2.5,0,0,1-1.21-.32A2.47,2.47,0,0,1,6.8,44.89V3.11A2.5,2.5,0,0,1,10.63,1L44,21.88h0a2.5,2.5,0,0,1,0,4.24L10.63,47A2.49,2.49,0,0,1,9.3,47.4Zm0-45.79a1.5,1.5,0,0,0-.73.19A1.48,1.48,0,0,0,7.8,3.11V44.89a1.5,1.5,0,0,0,2.3,1.27l33.4-20.89a1.5,1.5,0,0,0,0-2.54L10.1,1.84A1.5,1.5,0,0,0,9.3,1.61Z"/>
</g>
</symbol>
<symbol id="pause" viewBox="0 0 42 42" >
<g>
<path d="M14.5,0c-0.552,0-1,0.447-1,1v40c0,0.553,0.448,1,1,1s1-0.447,1-1V1C15.5,0.447,15.052,0,14.5,0z"/>
<path d="M27.5,0c-0.552,0-1,0.447-1,1v40c0,0.553,0.448,1,1,1s1-0.447,1-1V1C28.5,0.447,28.052,0,27.5,0z"/>
</g>
</symbol>
<symbol id="information" viewBox="0 0 465 465" >
<g>
<path xmlns="http://www.w3.org/2000/svg" d="M232.5,147.663c40.711,0,73.832-33.121,73.832-73.832S273.211,0,232.5,0s-73.832,33.12-73.832,73.831   S191.789,147.663,232.5,147.663z M232.5,15c32.44,0,58.832,26.392,58.832,58.831c0,32.44-26.392,58.832-58.832,58.832   s-58.832-26.392-58.832-58.832C173.668,41.392,200.06,15,232.5,15z"/>
<path xmlns="http://www.w3.org/2000/svg" d="M323.332,217.985c4.142,0,7.5-3.357,7.5-7.5v-40.319c0-4.143-3.358-7.5-7.5-7.5H141.668c-4.142,0-7.5,3.357-7.5,7.5v40.319   c0,4.143,3.358,7.5,7.5,7.5c9.374,0,17,7.625,17,16.998v20c0,4.143,3.358,7.5,7.5,7.5s7.5-3.357,7.5-7.5v-20   c0-15.062-10.462-27.727-24.5-31.11v-26.207h166.663v26.207c-14.038,3.384-24.5,16.049-24.5,31.11v157.699   c0,15.063,10.462,27.728,24.5,31.112V450H149.168v-26.205c14.038-3.385,24.5-16.05,24.5-31.112V284.983c0-4.143-3.358-7.5-7.5-7.5   s-7.5,3.357-7.5,7.5v107.699c0,9.374-7.626,17-17,17c-4.142,0-7.5,3.357-7.5,7.5V457.5c0,4.143,3.358,7.5,7.5,7.5h181.663   c4.142,0,7.5-3.357,7.5-7.5v-40.317c0-4.143-3.358-7.5-7.5-7.5c-9.374,0-17-7.626-17-17V234.983   C306.332,225.61,313.958,217.985,323.332,217.985z"/>
</g>
</symbol>
</svg>