<svg xmlns="http://www.w3.org/2000/svg" display="none">
<symbol id="paw" viewBox="0 0 551.062 551.062">
<g>
<path d="M465.19,453.459c14.749,67.688-58.752,82.375-91.127,73.562s-98.41-10.281-98.41-10.281s-66.218,1.469-98.593,10.281
		c-32.375,8.874-105.937-5.875-91.249-73.562s79.438-64.75,97.186-155.999c17.687-91.249,92.718-85.374,92.718-85.374
		s74.847-5.875,92.535,85.374C385.875,388.709,450.502,385.771,465.19,453.459z M343.586,206.15
		c39.841,11.505,83.844-19.951,98.349-70.258c14.504-50.245-5.998-100.307-45.839-111.812
		c-39.842-11.506-83.844,19.951-98.349,70.258C283.243,144.583,303.745,194.645,343.586,206.15z M508.703,187.852
		c-38.372-15.668-85.496,10.894-105.264,59.363c-19.768,48.471-4.712,100.43,33.66,116.035
		c38.372,15.606,85.496-10.894,105.264-59.364C562.131,255.416,547.076,203.519,508.703,187.852z M207.416,206.15
		c39.841-11.506,60.343-61.567,45.839-111.812s-58.568-81.702-98.349-70.196c-39.78,11.505-60.343,61.566-45.839,111.812
		C123.572,186.199,167.575,217.655,207.416,206.15z M113.963,363.25c38.373-15.667,53.428-67.626,33.66-116.035
		s-66.892-75.031-105.264-59.363C3.987,203.519-11.068,255.478,8.7,303.886C28.467,352.356,75.591,378.917,113.963,363.25z"/>
</g>
</symbol>
<symbol id="github" viewBox="0 0 24 24" >
<g>
<path d="m12 .5c-6.63 0-12 5.28-12 11.792 0 5.211 3.438 9.63 8.205 11.188.6.111.82-.254.82-.567 0-.28-.01-1.022-.015-2.005-3.338.711-4.042-1.582-4.042-1.582-.546-1.361-1.335-1.725-1.335-1.725-1.087-.731.084-.716.084-.716 1.205.082 1.838 1.215 1.838 1.215 1.07 1.803 2.809 1.282 3.495.981.108-.763.417-1.282.76-1.577-2.665-.295-5.466-1.309-5.466-5.827 0-1.287.465-2.339 1.235-3.164-.135-.298-.54-1.497.105-3.121 0 0 1.005-.316 3.3 1.209.96-.262 1.98-.392 3-.398 1.02.006 2.04.136 3 .398 2.28-1.525 3.285-1.209 3.285-1.209.645 1.624.24 2.823.12 3.121.765.825 1.23 1.877 1.23 3.164 0 4.53-2.805 5.527-5.475 5.817.42.354.81 1.077.81 2.182 0 1.578-.015 2.846-.015 3.229 0 .309.21.678.825.56 4.801-1.548 8.236-5.97 8.236-11.173 0-6.512-5.373-11.792-12-11.792z"/>
</g>
</symbol>
</svg>